PathFileType	4	(X/Y/Z)	D:\TRACE\v60_Jaco2_6-2-23\JustArmDRS_Motion3_3-v60.trc
DataRate	CameraRate	NumFrames	NumMarkers	Units	OrigDataRate	OrigDataStartFrame	OrigNumFrames
100.00	100.00	      38	9	mm	100.00	4376	      7000
Frame#	Time	front left toe			Front right toe			aft left toe			aft right toe			Arm			FL body			FR body			AL Body			AR Body			
		X1	Y1	Z1	X2	Y2	Z2	X3	Y3	Z3	X4	Y4	Z4	X5	Y5	Z5	X6	Y6	Z6	X7	Y7	Z7	X8	Y8	Z8	X9	Y9	Z9	

4376	43.750	-155.97226	14.78076	-237.34474	242.70233	12.58220	-171.59071	-244.47643	27.18967	399.03897	164.50417	22.44163	414.77533	93.70415	1025.83789	-708.97144	-4.28419	562.38031	-348.74158	152.38869	558.14996	-327.51822	-120.61497	613.60297	587.29321	29.31923	600.78088	607.23651	
4377	43.760	-156.54822	15.14573	-236.93994	242.33675	13.16866	-170.99727	-245.03084	26.82940	399.38425	164.07004	22.06085	414.88599	93.13873	1027.10840	-707.82727	-4.42722	562.78162	-348.24847	152.48604	558.54022	-327.30670	-120.75278	612.80243	587.73810	28.85865	600.04413	607.84949	
4378	43.770	-156.86855	15.51310	-236.70616	242.57860	13.75630	-170.29698	-245.48239	26.26031	399.63739	163.88683	21.41026	415.21356	92.80972	1028.19727	-707.10352	-5.04218	563.31610	-347.97873	151.93922	559.02759	-326.79593	-121.60375	612.01111	588.07471	28.40303	599.23077	608.35980	
4379	43.780	-157.31764	15.96972	-236.54137	242.09235	13.82141	-170.41776	-245.68645	25.53186	399.89517	163.56020	20.62334	415.40878	92.32232	1029.47900	-705.91986	-5.37413	563.68903	-347.40073	151.33362	559.83386	-326.44278	-122.04353	611.23792	588.35852	27.99872	598.31183	608.67267	
4380	43.790	-157.68140	16.29560	-236.23759	241.67697	13.99967	-170.35477	-245.96877	24.97417	400.04672	163.16243	20.07141	415.60687	91.95766	1030.22253	-704.70715	-5.75761	564.18427	-346.90564	150.62561	560.42499	-326.27036	-122.16777	610.13770	589.11749	27.80487	597.32550	608.98016	
4381	43.800	-158.12227	16.50793	-236.15300	241.23250	14.23497	-170.43974	-246.30652	24.36269	400.23758	162.69569	19.62659	415.86371	91.26280	1031.20129	-703.78265	-6.09897	565.04016	-346.50894	151.00922	560.80725	-325.88449	-122.43137	609.33234	589.48547	27.42229	596.63629	609.55591	
4382	43.810	-158.41208	17.26585	-235.90459	240.74573	14.74368	-170.09218	-246.71498	23.55595	400.48611	161.80510	18.85587	415.93933	90.47908	1032.19800	-702.68915	-7.00004	565.85114	-346.83728	150.05620	561.44257	-325.34143	-122.76928	608.55475	589.92059	27.10459	595.87524	610.13190	
4383	43.820	-158.69695	17.54960	-235.38606	240.27013	15.30565	-169.52878	-246.33018	22.95674	400.76294	161.58253	18.22507	416.17044	89.89719	1033.52588	-701.76007	-7.35797	566.25519	-346.37582	149.50668	561.93866	-325.10986	-123.13266	607.91394	590.57153	26.72649	594.91467	610.48907	
4384	43.830	-159.14938	18.15921	-235.43317	239.96611	15.36352	-169.29913	-247.47224	22.69838	401.04300	161.55806	17.88879	416.45944	89.33537	1034.44849	-700.75244	-7.98207	566.71149	-345.95343	149.13089	562.39008	-324.58521	-123.94787	607.04907	590.92316	26.40817	594.34180	610.76135	
4385	43.840	-159.35587	18.48761	-235.30789	239.76791	15.48282	-169.20183	-247.91502	22.07458	401.16614	161.21597	17.56080	416.63177	88.82071	1035.62585	-699.43134	-8.34604	567.03479	-345.46796	149.29086	562.81555	-324.29932	-124.12444	606.27148	591.18604	25.79086	593.39496	611.25159	
4386	43.850	-159.55112	18.77039	-235.10432	239.23502	15.81933	-169.18413	-248.32732	21.50900	401.35825	161.22339	17.04929	417.06927	88.27163	1036.45996	-698.74518	-8.64174	567.43774	-345.02084	148.78185	563.40833	-323.96506	-124.52424	605.39630	591.65662	25.29703	592.84863	611.72235	
4387	43.860	-160.29018	19.32376	-234.98589	238.92062	16.05047	-169.17557	-248.48425	21.03794	401.52170	160.94653	16.18389	417.32330	87.35971	1037.47778	-697.64496	-8.78819	567.76050	-344.18823	147.82686	564.00262	-323.52036	-124.80565	604.72803	592.29620	24.98780	592.01660	612.14789	
4388	43.870	-160.50223	19.66175	-234.79095	238.55984	16.55186	-168.89473	-248.72292	20.35183	401.75049	160.08832	15.47083	417.34714	86.81222	1038.25806	-696.70660	-9.68567	568.82104	-344.30011	147.37175	564.28754	-323.10104	-125.26817	603.79144	592.68750	24.72824	591.09387	612.54913	
4389	43.880	-160.96388	20.09174	-234.40073	238.30463	16.85188	-168.46426	-249.31818	19.88295	401.85367	159.68637	15.18620	417.42300	86.20284	1039.19714	-695.84784	-10.19194	569.26093	-343.97186	147.33517	564.97070	-322.83563	-125.29163	603.08264	593.18689	24.12911	590.75360	612.94830	
4390	43.890	-161.13565	20.17010	-234.08182	237.79059	17.01623	-168.24696	-249.70412	19.61867	402.18039	159.12785	14.92013	417.47894	85.36211	1040.12048	-694.63452	-10.64455	569.72803	-343.57498	146.96281	565.34723	-322.50339	-126.19851	602.32056	593.55157	23.73481	589.51605	613.37976	
4391	43.900	-161.39998	20.44506	-233.89807	237.57634	17.48697	-167.96188	-249.73523	18.86966	402.28867	158.74738	14.18579	417.56683	84.81928	1041.22400	-693.75208	-11.12323	570.17712	-343.21725	146.21877	565.73169	-322.05289	-126.61440	601.60413	593.87958	23.18420	589.11829	613.89252	
4392	43.910	-161.79710	20.88994	-233.66489	237.34254	17.83178	-167.89618	-250.09947	18.34745	402.55286	158.50024	13.49044	417.96640	84.36003	1042.25891	-692.75006	-11.60696	570.60150	-342.69919	145.50856	566.37006	-321.56744	-126.93635	601.05481	594.32391	22.91246	588.35840	614.22687	
4393	43.920	-162.09879	21.21870	-233.53511	237.05386	18.08064	-167.93332	-250.40416	17.77808	402.88531	158.60387	13.23867	418.28873	83.84016	1043.33228	-691.75110	-12.08873	570.96625	-342.33023	144.79417	567.01855	-321.29950	-127.19212	600.21704	594.81287	22.55519	587.69196	614.51544	
4394	43.930	-162.37975	21.53437	-233.32227	237.05099	18.39646	-167.64583	-250.71835	17.33510	402.94333	158.23509	12.83467	418.44714	83.19611	1044.17725	-690.90466	-12.54982	571.36011	-341.91519	144.84363	567.31238	-321.10754	-127.42958	599.57330	595.42029	22.37135	587.00775	614.96997	
4395	43.940	-162.88858	21.87917	-233.06314	236.57854	18.46166	-167.67879	-250.87132	16.77909	403.21649	158.16353	12.59652	418.70630	81.49004	1045.03906	-689.93701	-13.08299	571.93573	-341.53781	144.42033	567.68121	-320.66962	-127.92880	598.70850	595.71924	22.25186	586.12866	615.35150	
4396	43.950	-162.82124	22.13126	-233.00362	236.19315	18.76959	-167.33183	-251.33836	16.30247	403.18555	157.89696	11.95787	418.78391	81.86738	1045.56995	-689.07214	-13.60935	572.41333	-341.16577	143.47733	568.29382	-320.18665	-128.02974	598.27112	596.07825	21.76302	585.61768	615.79572	
4397	43.960	-163.07835	22.54814	-232.76320	235.86021	19.25047	-167.06194	-251.65775	16.03005	403.40811	157.49820	11.20315	418.89224	81.25503	1046.26074	-688.17145	-13.68915	572.66028	-340.37903	142.80003	568.74939	-319.83423	-128.76466	597.57684	596.59412	20.94202	585.01575	616.27130	
4398	43.970	-163.28252	22.81108	-232.62007	235.69511	19.69251	-166.52654	-252.03476	15.44079	403.72430	156.99321	10.81828	418.94388	80.34904	1047.10205	-687.37415	-14.14079	572.88757	-339.90158	142.33038	569.08148	-319.54575	-129.22472	596.87341	597.04993	20.71513	584.33295	616.62262	
4399	43.980	-163.45990	23.04543	-232.43349	235.54797	19.84806	-166.49054	-252.19641	15.16935	403.97253	156.80751	10.52553	419.10974	79.79523	1048.01733	-686.35638	-14.81543	573.32074	-339.58441	142.62088	569.35791	-319.27634	-129.31328	596.22217	597.46893	20.55329	583.64667	617.07037	
4400	43.990	-163.80240	23.30290	-232.24738	235.42532	19.91648	-166.57306	-252.42140	14.79733	404.02258	156.63455	10.25968	419.26782	78.44522	1048.92651	-685.32477	-15.49353	573.96808	-339.49969	141.63266	569.75232	-318.73413	-129.30962	595.40363	597.87292	20.27227	583.15399	617.43036	
4401	44.000	-164.11055	23.47403	-231.96916	235.14293	20.11916	-166.44489	-252.63203	14.11514	404.30246	156.39064	9.66238	419.32898	79.00131	1049.75952	-684.60529	-15.66771	574.08685	-338.92062	140.65678	570.39099	-318.63086	-129.50519	594.75122	598.34760	20.32692	582.17981	617.72113	
4402	44.010	-164.23357	23.60480	-231.79756	234.68887	20.09056	-166.56140	-252.58647	13.63545	404.29099	155.94246	8.85816	419.48560	77.76222	1050.66956	-683.56085	-16.43010	574.74438	-338.90048	140.53122	570.82513	-318.22321	-130.14597	594.11639	598.78674	19.80337	581.53998	618.13617	
4403	44.020	-164.40958	23.88401	-231.49994	234.42610	20.26038	-166.55371	-251.83676	12.76048	404.54486	155.90965	8.51320	419.78726	77.31062	1051.50818	-682.95190	-16.83043	575.21588	-338.64053	140.74930	571.15161	-318.08603	-130.34918	593.50726	599.10913	19.82281	580.92358	618.53436	
4404	44.030	-164.67450	24.25268	-231.30809	234.32700	20.74876	-166.19109	-252.74171	12.68622	404.73184	155.85873	8.40825	419.78165	75.50861	1052.43787	-682.08264	-17.01200	575.65375	-337.88199	140.14085	571.67279	-317.82263	-130.76167	592.95703	599.34070	19.58130	580.52264	618.76221	
4405	44.040	-164.86613	24.59947	-231.20813	234.06145	21.04142	-166.09625	-253.09041	12.60737	404.89896	155.92563	8.35136	419.84015	75.16286	1053.24731	-681.34528	-17.25423	575.95007	-337.42032	139.57033	572.17438	-317.33392	-130.97346	592.40674	599.65192	19.09587	579.94269	618.96655	
4406	44.050	-165.02444	24.94966	-231.06511	234.02354	21.45813	-165.79008	-253.24312	12.26607	404.95908	155.81189	8.07231	419.99579	74.34303	1054.18457	-680.40118	-17.68381	576.35638	-337.20889	138.83257	572.57581	-316.94931	-131.17894	592.08417	600.23468	18.69541	579.39026	619.25195	
4407	44.060	-165.16068	25.13299	-230.95731	233.93710	21.57041	-165.59668	-253.43597	11.90330	405.01389	155.64091	7.49067	420.07275	74.94312	1054.80664	-679.86194	-18.34097	576.92535	-336.92194	138.70143	572.81519	-316.66797	-131.43040	591.62189	600.75500	18.43091	579.08368	619.73816	
4408	44.070	-165.04222	25.25510	-230.98505	233.66904	21.53030	-165.57236	-253.66425	11.56962	405.15430	155.72125	7.11053	420.23169	74.34044	1055.79236	-678.85803	-18.56188	577.17731	-336.49588	138.58754	573.53632	-316.48755	-131.56075	591.02216	600.96930	18.34709	578.61646	620.20691	
4409	44.080	-165.25267	25.46490	-230.89757	233.60558	21.66722	-165.46776	-253.87445	11.20126	405.28421	155.72395	6.73550	420.52856	74.14546	1056.29639	-678.17194	-19.18459	577.63940	-336.34772	137.59926	574.04364	-316.16531	-131.69556	590.33099	601.23322	18.09399	578.10950	620.40601	
4410	44.090	-165.49557	25.77997	-230.76843	233.46211	21.88769	-165.24408	-253.90065	10.86461	405.51691	155.67641	6.50955	420.79919	72.30717	1056.95068	-677.24261	-19.40416	577.98273	-336.18787	137.85011	574.26892	-316.03839	-131.86713	589.92224	601.37445	18.16012	577.40149	620.74634	
4411	44.100	-165.71927	25.85796	-230.56564	233.24161	21.99735	-165.22911	-253.80173	10.52264	405.67624	155.66673	6.40041	420.91165	72.09353	1057.74878	-676.74030	-19.78531	578.38824	-335.86401	137.30128	574.50378	-315.54395	-131.77509	589.34973	601.82892	18.13477	576.92761	620.99329	
4412	44.110	-165.74203	26.01382	-230.44795	233.10355	22.06807	-165.17712	-253.91835	10.18701	405.86105	155.53331	6.18198	420.96088	71.28443	1058.32397	-675.96765	-19.99814	578.64819	-335.36566	136.85197	574.94495	-315.34204	-132.28903	588.73267	602.26251	17.93254	576.45209	621.12823	
4413	44.120	-165.77284	26.16077	-230.35741	233.00414	22.26351	-165.11436	-253.97617	9.77701	406.04922	155.22899	5.78920	420.97153	70.77831	1058.95447	-675.28253	-20.58016	579.25769	-335.38809	136.46677	575.43274	-315.15097	-132.38225	588.07831	602.65247	17.59686	575.74731	621.41119	
